<?xml version="1.0" encoding="UTF-8"?>
<svg version="1.1" xmlns="http://www.w3.org/2000/svg" width="500" height="500">
<path d="M0 0 C1.49032672 0.03280392 2.98074939 0.06156824 4.471241 0.08574677 C20.71413876 0.37113563 32.44350351 4.29230258 43.95059395 16.02680588 C45.34903145 17.76118088 45.34903145 17.76118088 45.34903145 19.76118088 C45.93813301 20.01254807 46.52723457 20.26391525 47.1341877 20.52289963 C49.62547347 21.91573488 50.97203559 23.38203807 52.78653145 25.57368088 C55.48941558 28.8158876 58.34128738 31.79826161 61.34903145 34.76118088 C72.34903145 45.76118088 72.34903145 45.76118088 75.0170002 48.43696213 C76.71269123 50.12697245 78.43065142 51.79472885 80.16153145 53.44868088 C82.34903145 55.76118088 82.34903145 55.76118088 82.34903145 57.76118088 C92.30473968 60.03117454 102.2511951 62.18846666 112.30996895 63.95258713 C115.47123305 64.54333044 118.55540178 65.32675177 121.6654377 66.14399338 C126.82316725 67.45724433 131.98857916 68.46228158 137.2279377 69.37446213 C138.01297676 69.51314209 138.79801582 69.65182205 139.60684395 69.79470444 C142.85955389 70.3684349 146.11208518 70.94071767 149.37027168 71.48261642 C162.74673917 73.722043 175.05325357 77.10256466 184.34903145 87.76118088 C191.88489739 98.97266962 192.67192157 109.31053625 192.68496895 122.43305588 C192.69140928 123.96229294 192.69813853 125.49152881 192.70514107 127.0207634 C192.7170726 130.21811907 192.72082624 133.41536704 192.71963692 136.61274338 C192.71943414 140.67861884 192.74671151 144.74379212 192.78118134 148.80950165 C192.80359155 151.96683958 192.80747015 155.1240124 192.80641747 158.28142166 C192.8087532 159.7787149 192.81746017 161.27601413 192.8330822 162.77322769 C192.94970136 175.10542628 191.56658133 186.0976147 183.3295002 195.79243088 C175.85602425 203.22168508 167.28359976 206.88244695 156.7826252 207.05414963 C154.45041224 207.03444079 152.11828466 206.99900649 149.78653145 206.94868088 C148.58705879 206.93514572 147.38758614 206.92161057 146.15176582 206.90766525 C143.21704266 206.87258888 140.28328263 206.82343515 137.34903145 206.76118088 C137.21496895 207.51012619 137.08090645 208.2590715 136.94278145 209.03071213 C134.63691064 219.63468379 126.17559267 228.37992867 117.50528145 234.45258713 C103.6931128 242.83497209 89.66068951 244.60916182 74.01309395 240.99555588 C60.58903182 236.47316394 50.04610101 226.74122194 43.4779377 214.37446213 C42.34903145 211.76118088 42.34903145 211.76118088 41.34903145 206.76118088 C14.94903145 207.09118088 -11.45096855 207.42118088 -38.65096855 207.76118088 C-40.63096855 211.72118088 -42.61096855 215.68118088 -44.65096855 219.76118088 C-49.29608734 226.19411171 -55.04778211 231.4003265 -61.65096855 235.76118088 C-62.68221855 236.48305588 -63.71346855 237.20493088 -64.77596855 237.94868088 C-76.2644947 244.21753419 -90.6184973 244.08612781 -102.8736248 240.66352463 C-115.35631357 236.60796752 -126.88805534 227.2576371 -133.02596855 215.57368088 C-134.42740279 212.67941452 -135.04843261 209.91268334 -135.65096855 206.76118088 C-136.35592461 206.78212814 -137.06088066 206.80307541 -137.78719902 206.82465744 C-141.03330586 206.90866807 -144.27918294 206.96010785 -147.52596855 207.01118088 C-148.6345623 207.0446965 -149.74315605 207.07821213 -150.88534355 207.11274338 C-158.35422843 207.20061261 -163.97684069 206.11770624 -170.65096855 202.76118088 C-171.39362968 202.39339523 -172.13629082 202.02560959 -172.90145683 201.64667892 C-181.59633561 197.11074456 -185.85238714 188.55270025 -188.78262138 179.56893539 C-190.5817047 171.67984695 -190.22180042 163.59541219 -190.18221855 155.54243088 C-190.18491937 153.59292534 -190.18880667 151.64342111 -190.19381523 149.69392014 C-190.19968256 145.62587673 -190.1912371 141.5581868 -190.17245293 137.49018478 C-190.14966518 132.3056664 -190.16280319 127.12197663 -190.18674278 121.93748856 C-190.20127591 117.91714489 -190.19656051 113.89699397 -190.18623161 109.87664413 C-190.18358504 107.96629358 -190.18676021 106.05592486 -190.19614983 104.14559555 C-190.23643579 93.64869597 -189.97089805 84.5374316 -185.65096855 74.76118088 C-185.20978691 73.66837814 -184.76860527 72.57557541 -184.31405449 71.44965744 C-183.73059258 70.18847092 -183.73059258 70.18847092 -183.13534355 68.90180588 C-182.69295341 67.93944016 -182.25056328 66.97707443 -181.79476738 65.98554611 C-181.33481377 65.00400558 -180.87486015 64.02246506 -180.40096855 63.01118088 C-179.91716728 61.96840988 -179.43336601 60.92563889 -178.9349041 59.85126877 C-175.29176491 52.03747974 -171.55959446 44.2755063 -167.60262871 36.61567307 C-166.60651659 34.67455772 -165.63461067 32.72231768 -164.6626873 30.76899338 C-157.4493183 16.47898509 -148.84730398 7.42256074 -133.65096855 1.76118088 C-128.68844675 0.4166421 -123.66032873 0.57918016 -118.55697441 0.53998947 C-117.54117805 0.52848358 -116.5253817 0.51697769 -115.47880363 0.50512314 C-112.10783721 0.4683639 -108.73685309 0.43870377 -105.3658123 0.40961838 C-102.99297178 0.38645459 -100.62013346 0.36306401 -98.24729729 0.33945847 C-93.24963552 0.29092985 -88.2519566 0.24606082 -83.25424004 0.20356369 C-78.19916132 0.16025625 -73.14417896 0.11184542 -68.08920097 0.05805588 C-20.30135491 -0.44961574 -20.30135491 -0.44961574 0 0 Z M-130.65096855 34.76118088 C-130.98096855 35.75118088 -131.31096855 36.74118088 -131.65096855 37.76118088 C-132.31096855 37.76118088 -132.97096855 37.76118088 -133.65096855 37.76118088 C-134.40656066 39.21662469 -135.15503281 40.67576451 -135.90096855 42.13618088 C-136.3186248 42.94829025 -136.73628105 43.76039963 -137.16659355 44.59711838 C-138.37789661 47.17910647 -139.44641854 49.74064099 -140.4829998 52.39399338 C-142.75527503 58.14706398 -145.39461346 63.69560957 -148.08846855 69.26118088 C-148.55317558 70.22926682 -149.01788261 71.19735275 -149.49667168 72.19477463 C-153.53064379 80.57778502 -153.53064379 80.57778502 -154.9152813 82.68821335 C-160.01463577 91.12136377 -159.34151244 99.78507213 -159.24471855 109.31586838 C-159.24300497 111.10803268 -159.24307565 112.90019949 -159.24484062 114.69236374 C-159.24319493 118.42941722 -159.22462594 122.16586531 -159.19296074 125.90278244 C-159.15311225 130.69124215 -159.14894007 135.47891711 -159.15642357 140.26751137 C-159.15949137 143.95985221 -159.1473824 147.65201667 -159.13029289 151.34431458 C-159.12326906 153.11054632 -159.12013761 154.87679802 -159.12098503 156.64304352 C-159.11918772 159.10580604 -159.09781808 161.5676246 -159.07089043 164.03022385 C-159.07382103 164.75754211 -159.07675163 165.48486038 -159.07977104 166.2342186 C-159.02782676 169.31245857 -158.81462286 171.46526533 -157.31222343 174.18186569 C-154.65803903 176.70513517 -152.13371629 176.88511131 -148.6392498 176.85883713 C-147.50326347 176.85400314 -147.50326347 176.85400314 -146.34432793 176.8490715 C-145.16580254 176.83650314 -145.16580254 176.83650314 -143.96346855 176.82368088 C-143.1661834 176.81916916 -142.36889824 176.81465744 -141.54745293 176.810009 C-139.58192598 176.79823938 -137.6164377 176.78030436 -135.65096855 176.76118088 C-135.22686699 175.84336838 -134.80276543 174.92555588 -134.3658123 173.97993088 C-126.3838689 157.12763105 -126.3838689 157.12763105 -119.65096855 153.76118088 C-119.65096855 153.10118088 -119.65096855 152.44118088 -119.65096855 151.76118088 C-118.92522636 151.48274338 -118.19948418 151.20430588 -117.4517498 150.91743088 C-113.99002562 149.48832299 -110.74370903 147.74555098 -107.4439373 145.97993088 C-100.88981777 143.11995145 -94.76975478 142.42098548 -87.71346855 142.51118088 C-86.91715019 142.52084885 -86.12083183 142.53051682 -85.30038261 142.54047775 C-72.04111499 142.81251853 -60.92787919 147.40347448 -51.15096855 156.63618088 C-46.63479509 161.54970008 -42.98172069 167.25419875 -40.61190605 173.49946213 C-39.87156296 175.92102081 -39.87156296 175.92102081 -37.65096855 176.76118088 C-35.14859939 176.85406769 -32.67434169 176.88700499 -30.17196465 176.87470627 C-29.40114052 176.87485229 -28.63031639 176.87499832 -27.83613396 176.87514877 C-25.28219626 176.87445077 -22.72833104 176.86666363 -20.17440605 176.85883713 C-18.40606539 176.85697255 -16.63772422 176.85554883 -14.86938286 176.85454941 C-10.21032096 176.85072738 -5.55129013 176.84089975 -0.89224052 176.82984543 C3.86005419 176.81962457 8.61235392 176.81505034 13.36465645 176.810009 C22.69279511 176.79927722 32.0209107 176.78220455 41.34903145 176.76118088 C42.49733122 174.49156488 43.64275123 172.2205731 44.78653145 169.94868088 C45.11201973 169.30608322 45.43750801 168.66348557 45.77285957 168.00141525 C47.14135821 165.27852622 48.38386409 162.65668294 49.34903145 159.76118088 C50.00903145 159.76118088 50.66903145 159.76118088 51.34903145 159.76118088 C51.86465645 159.05993088 52.38028145 158.35868088 52.91153145 157.63618088 C59.68997524 149.64109332 70.93823454 143.90537972 81.34903145 142.76118088 C97.79712141 141.72739288 110.39305902 144.06625645 123.67715645 154.60883713 C130.27325395 160.73917965 134.14135068 168.4421957 137.34903145 176.76118088 C140.59886145 176.8484697 143.84838895 176.90166745 147.09903145 176.94868088 C148.01942207 176.9738176 148.9398127 176.99895432 149.88809395 177.02485275 C150.77754707 177.03452072 151.6670002 177.04418869 152.58340645 177.05414963 C153.40034981 177.06986008 154.21729317 177.08557053 155.05899239 177.10175705 C158.01937507 176.66148692 159.21412984 175.85909606 161.34903145 173.76118088 C161.95741663 170.95847628 161.95741663 170.95847628 161.86660957 167.71674728 C161.88552254 165.8493338 161.88552254 165.8493338 161.90481758 163.94419479 C161.89765639 162.58370525 161.88945206 161.22322086 161.88028145 159.86274338 C161.88297658 158.46653091 161.88685917 157.07032027 161.89187813 155.67411423 C161.89777626 152.7469001 161.88920359 149.82017418 161.87051582 146.89301682 C161.84776723 143.14792772 161.86081972 139.40398784 161.88480568 135.65894127 C161.89929187 132.77461285 161.89464426 129.89055472 161.88429451 127.00621796 C161.88163277 125.62597008 161.88487758 124.24569739 161.89421272 122.86547852 C161.9044179 120.93179189 161.88609435 118.99801891 161.86660957 117.06440353 C161.8634272 115.96536697 161.86024483 114.86633041 161.85696602 113.73398972 C161.23120231 110.07155763 159.91185367 108.40304929 157.34903145 105.76118088 C155.13832515 104.62103082 155.13832515 104.62103082 152.7045002 104.09321213 C151.82197578 103.8632756 150.93945137 103.63333908 150.03018379 103.39643478 C149.14540352 103.18680099 148.26062325 102.97716721 147.34903145 102.76118088 C146.17461494 102.46413254 146.17461494 102.46413254 144.97647285 102.16108322 C142.54434581 101.55930404 140.10598879 100.99818296 137.66153145 100.44868088 C136.73872383 100.23993332 135.81591621 100.03118576 134.86514473 99.81611252 C126.51422378 97.95997333 118.12381485 96.31557108 109.72403145 94.69868088 C108.72777748 94.50597107 108.72777748 94.50597107 107.71139717 94.30936813 C101.2409092 93.05792855 94.76950467 91.82311553 88.2748127 90.70258713 C87.37649727 90.54089035 86.47818184 90.37919357 85.55264473 90.21259689 C83.95890312 89.92666363 82.36233877 89.65571612 80.76260567 89.40546799 C69.1486181 87.27742284 61.41565667 79.39630405 53.47403145 71.19868088 C52.08957832 69.7997258 52.08957832 69.7997258 50.67715645 68.372509 C43.92642392 61.50926426 43.92642392 61.50926426 41.18448067 57.95673752 C40.57878242 57.23220383 39.97308418 56.50767014 39.34903145 55.76118088 C38.68903145 55.76118088 38.02903145 55.76118088 37.34903145 55.76118088 C37.34903145 55.10118088 37.34903145 54.44118088 37.34903145 53.76118088 C36.68903145 53.76118088 36.02903145 53.76118088 35.34903145 53.76118088 C34.96424629 52.88332932 34.96424629 52.88332932 34.5716877 51.98774338 C33.24340983 49.5688348 31.78378343 48.02919215 29.78653145 46.13618088 C26.44625367 42.95562532 26.44625367 42.95562532 25.34903145 40.76118088 C24.68903145 40.76118088 24.02903145 40.76118088 23.34903145 40.76118088 C23.34903145 40.10118088 23.34903145 39.44118088 23.34903145 38.76118088 C21.43868132 36.97912066 21.43868132 36.97912066 19.03653145 35.19868088 C18.23602364 34.57864182 17.43551582 33.95860275 16.6107502 33.31977463 C13.02214537 30.84679824 10.20078343 30.63261951 5.9549427 30.61400986 C4.83488335 30.60685455 3.71482399 30.59969925 2.56082344 30.59232712 C0.71635628 30.58829376 0.71635628 30.58829376 -1.16537285 30.58417892 C-2.45993904 30.57760773 -3.75450523 30.57103653 -5.0883007 30.5642662 C-9.38391699 30.54324018 -13.67953357 30.53286374 -17.9751873 30.52289963 C-19.45561873 30.51885123 -20.93604997 30.51473428 -22.41648102 30.51054955 C-29.37366953 30.4914994 -36.33084745 30.4772692 -43.28805703 30.46893758 C-51.30979348 30.45917179 -59.3312535 30.432869 -67.35289258 30.39243668 C-73.55854925 30.36223506 -79.76412689 30.34746479 -85.96985561 30.34415656 C-89.67355195 30.34181026 -93.37695294 30.33290534 -97.08057022 30.30769539 C-101.21708634 30.27999392 -105.35298851 30.28425812 -109.4895916 30.29121017 C-110.70911522 30.27840012 -111.92863884 30.26559006 -113.18511772 30.25239182 C-120.10466231 30.29475631 -124.82975533 30.88363454 -130.65096855 34.76118088 Z M-99.65096855 175.76118088 C-101.05563808 177.81211233 -101.05563808 177.81211233 -101.65096855 179.76118088 C-102.31096855 179.76118088 -102.97096855 179.76118088 -103.65096855 179.76118088 C-107.07407506 185.97566179 -108.64999673 190.79641391 -106.65096855 197.76118088 C-104.50919903 202.85919566 -101.48301224 207.3873173 -96.4204998 209.84321213 C-90.40734971 211.83628726 -82.43490403 212.14040867 -76.65096855 209.26118088 C-71.68173249 205.12015082 -68.69881093 200.71544402 -67.65096855 194.26118088 C-67.23159974 186.86504004 -70.28218096 181.69718816 -74.95565605 176.20649338 C-79.65571346 172.19953199 -84.8809535 172.39872673 -90.7642498 172.50727463 C-94.35690538 172.82327275 -96.74139101 173.61728164 -99.65096855 175.76118088 Z M78.34903145 174.76118088 C78.34903145 175.42118088 78.34903145 176.08118088 78.34903145 176.76118088 C77.48278145 177.03961838 77.48278145 177.03961838 76.59903145 177.32368088 C73.22949634 179.47643942 71.62058374 182.06211967 70.34903145 185.76118088 C69.27976616 192.28551144 69.60215427 197.38306782 73.22403145 203.01118088 C74.73632274 205.17836178 74.73632274 205.17836178 76.34903145 206.76118088 C77.00903145 206.76118088 77.66903145 206.76118088 78.34903145 206.76118088 C78.34903145 207.42118088 78.34903145 208.08118088 78.34903145 208.76118088 C85.53195868 211.60378612 90.9744527 212.35121459 98.34903145 209.76118088 C103.15621355 207.26856794 105.92215205 204.61493968 108.34903145 199.76118088 C109.69765882 193.80556365 109.8632312 188.41813032 107.34903145 182.76118088 C104.32393993 178.60358022 101.29625837 174.57576593 96.34903145 172.76118088 C90.16121355 172.17514799 84.10439444 172.20324177 78.34903145 174.76118088 Z " fill="#039868" transform="translate(251.65096855163574,119.23881912231445)"/>
<path d="M0 0 C0.33 0 0.66 0 1 0 C1.02689216 1.47906892 1.04634621 2.95827483 1.0625 4.4375 C1.07410156 5.26121094 1.08570312 6.08492187 1.09765625 6.93359375 C1 9 1 9 0 10 C-0.09529612 13.01350238 -0.12551904 16.00404106 -0.11352539 19.01782227 C-0.11367142 19.96406464 -0.11381744 20.91030701 -0.1139679 21.88522339 C-0.11326836 25.02897392 -0.10547409 28.17266601 -0.09765625 31.31640625 C-0.09579221 33.48974068 -0.09436824 35.66307552 -0.09336853 37.83641052 C-0.08954221 43.56901195 -0.07971097 49.30158823 -0.06866455 55.03417969 C-0.05845287 60.87890279 -0.05387143 66.72362993 -0.04882812 72.56835938 C-0.0380888 84.045584 -0.02101102 95.52278991 0 107 C0.66 107 1.32 107 2 107 C2.66 109.64 3.32 112.28 4 115 C3.01 115 2.02 115 1 115 C-4.27429376 103.45950189 -4.72674501 93.11613374 -4.62890625 80.5859375 C-4.62973715 78.63929105 -4.63220485 76.69264469 -4.63621521 74.7460022 C-4.63905555 70.68982527 -4.62454324 66.63420593 -4.59692383 62.578125 C-4.56279863 57.40932959 -4.56889159 52.24152669 -4.5875864 47.07268333 C-4.59821084 43.0609018 -4.58917012 39.04934675 -4.57420158 35.03758621 C-4.56906227 33.13282572 -4.56944919 31.22804116 -4.57574654 29.32328415 C-4.5974645 18.81334923 -4.35080046 9.7522091 0 0 Z " fill="#5FBFA8" transform="translate(66,194)"/>
<path d="M0 0 C0.33 0.99 0.66 1.98 1 3 C0.69596252 3.5601329 0.39192505 4.12026581 0.07867432 4.69737244 C-1.47506124 8.01410507 -1.27847895 11.25120786 -1.25878906 14.84204102 C-1.2622937 15.62784546 -1.26579834 16.4136499 -1.26940918 17.2232666 C-1.27820133 19.81690339 -1.27238683 22.41026676 -1.265625 25.00390625 C-1.26697224 26.80704297 -1.26891326 28.61017934 -1.27142334 30.41331482 C-1.27437108 34.19021059 -1.2700877 37.96701172 -1.26074219 41.74389648 C-1.24933968 46.5885371 -1.25591438 51.43295632 -1.26788712 56.27758884 C-1.27510819 59.99986952 -1.27281679 63.72209756 -1.26763153 67.44437981 C-1.26629614 69.23098718 -1.26793888 71.01759931 -1.27259064 72.80420113 C-1.27766082 75.29871445 -1.26993918 77.79286711 -1.25878906 80.28735352 C-1.26283752 81.02769333 -1.26688599 81.76803314 -1.27105713 82.5308075 C-1.24028386 86.24068995 -1.1142564 87.82861541 1 91 C3.59257669 91.86419223 5.34037707 92.17580932 8.01171875 92.31640625 C8.76904297 92.35830078 9.52636719 92.40019531 10.30664062 92.44335938 C11.09232422 92.48267578 11.87800781 92.52199219 12.6875 92.5625 C13.88342773 92.62727539 13.88342773 92.62727539 15.10351562 92.69335938 C17.06881447 92.79927368 19.03438496 92.90012551 21 93 C21.99 90.03 22.98 87.06 24 84 C24.66 84.99 25.32 85.98 26 87 C25.34 87 24.68 87 24 87 C24 88.98 24 90.96 24 93 C21.44276771 94.27861615 19.63262898 94.11336609 16.7734375 94.09765625 C15.2265625 94.09282227 15.2265625 94.09282227 13.6484375 94.08789062 C12.02808594 94.07532227 12.02808594 94.07532227 10.375 94.0625 C8.74304688 94.05573242 8.74304688 94.05573242 7.078125 94.04882812 C4.38536211 94.03701776 1.69270812 94.02054778 -1 94 C-1 93.01 -1 92.02 -1 91 C-1.99 90.67 -2.98 90.34 -4 90 C-4.04631944 78.98647723 -4.08186724 67.97297759 -4.10362434 56.95937729 C-4.11406611 51.84544181 -4.12823254 46.73157293 -4.15087891 41.61767578 C-4.17259319 36.68343704 -4.18456567 31.74926239 -4.18975449 26.81497955 C-4.19345278 24.93150066 -4.20067451 23.04802531 -4.21146011 21.16457367 C-4.22595618 18.52858368 -4.22797873 15.89285931 -4.22705078 13.25683594 C-4.23424133 12.47640427 -4.24143188 11.6959726 -4.24884033 10.89189148 C-4.22291042 4.09469389 -4.22291042 4.09469389 -2 1 C-1.34 0.67 -0.68 0.34 0 0 Z " fill="#61B69C" transform="translate(95,203)"/>
<path d="M0 0 C18.26319853 -0.07012358 36.52636205 -0.12300457 54.78966618 -0.15543652 C63.26989814 -0.1708964 71.75004638 -0.19196909 80.23022461 -0.22631836 C87.62272827 -0.25624765 95.01517129 -0.27558139 102.40773386 -0.28226548 C106.32098711 -0.28617177 110.2340669 -0.29533369 114.14726448 -0.31719017 C117.83345492 -0.33761118 121.51940107 -0.34382253 125.2056427 -0.33932304 C127.19746523 -0.34053687 129.18926138 -0.35664956 131.18101501 -0.3732605 C137.49813193 -0.35147844 142.50390571 -0.28840038 148 3 C148.9375 5.1875 148.9375 5.1875 149 7 C150.32 7 151.64 7 153 7 C153 8.32 153 9.64 153 11 C152.34 11 151.68 11 151 11 C151 10.34 151 9.68 151 9 C150.443125 8.7525 149.88625 8.505 149.3125 8.25 C147 7 147 7 144.4375 4.9375 C140.80690243 2.05164039 138.07966555 1.8747472 133.58572388 1.87301636 C131.89913162 1.86878662 131.89913162 1.86878662 130.1784668 1.86447144 C128.94410889 1.86649567 127.70975098 1.8685199 126.43798828 1.87060547 C125.13860321 1.86885315 123.83921814 1.86710083 122.50045776 1.86529541 C118.93428826 1.86073172 115.36814765 1.86250652 111.80197763 1.8656745 C108.07004118 1.86820464 104.33810721 1.86585863 100.60617065 1.86428833 C94.33656368 1.8624681 88.06696847 1.86486864 81.79736328 1.86962891 C74.55207566 1.8750665 67.30681621 1.87331193 60.06152928 1.8678025 C53.84063289 1.86326154 47.61974497 1.86262579 41.39884746 1.86524117 C37.68362967 1.86679914 33.9684251 1.86701094 30.25320816 1.86370468 C26.10905547 1.86027451 21.96495114 1.8650318 17.82080078 1.87060547 C16.59049133 1.86858124 15.36018188 1.86655701 14.09259033 1.86447144 C12.96255585 1.86729126 11.83252136 1.87011108 10.66824341 1.87301636 C9.19875842 1.8735819 9.19875842 1.8735819 7.69958687 1.87415886 C5.03633114 1.99830643 2.59513224 2.4048799 0 3 C0 2.01 0 1.02 0 0 Z " fill="#248F6D" transform="translate(124,149)"/>
<path d="M0 0 C2.29607873 3.44411809 2.25686002 4.7439624 2.2746582 8.80078125 C2.28895622 10.58778442 2.28895622 10.58778442 2.30354309 12.41088867 C2.30263168 13.69842041 2.30172028 14.98595215 2.30078125 16.3125 C2.30466838 17.64624159 2.30900309 18.97998195 2.31376648 20.3137207 C2.3212259 23.107951 2.32093918 25.90205494 2.31567383 28.69628906 C2.30987469 32.2777122 2.32682151 35.85861894 2.3500185 39.43995667 C2.36474588 42.19375636 2.36562903 44.94743133 2.36250877 47.70126343 C2.36327207 49.66390253 2.37715113 51.62652228 2.39118958 53.58911133 C2.38496078 54.78044678 2.37873199 55.97178223 2.37231445 57.19921875 C2.37294388 58.24940186 2.3735733 59.29958496 2.3742218 60.3815918 C2 63 2 63 0.60441589 64.84423828 C-2.3475555 66.97072901 -5.48156009 66.17303803 -9 66 C-9.33 66.99 -9.66 67.98 -10 69 C-11.65 68.67 -13.3 68.34 -15 68 C-15 67.34 -15 66.68 -15 66 C-15.66 66 -16.32 66 -17 66 C-17.495 66.99 -17.495 66.99 -18 68 C-18.99 67.34 -19.98 66.68 -21 66 C-20.505 65.01 -20.505 65.01 -20 64 C-18.87980469 64.02320313 -17.75960938 64.04640625 -16.60546875 64.0703125 C-15.13281916 64.08907237 -13.66016237 64.10727234 -12.1875 64.125 C-11.44951172 64.14175781 -10.71152344 64.15851563 -9.95117188 64.17578125 C-6.08753574 64.21074628 -4.29096332 64.19397555 -1 62 C-0.52153188 59.29553463 -0.52153188 59.29553463 -0.56762695 56.08154297 C-0.54783279 54.84040741 -0.52803864 53.59927185 -0.50764465 52.32052612 C-0.50087437 50.96108145 -0.49442757 49.60163514 -0.48828125 48.2421875 C-0.47144125 46.85497435 -0.45329193 45.46777652 -0.43388367 44.08059692 C-0.38630305 40.42772205 -0.35654633 36.77490926 -0.33044434 33.12182617 C-0.3006791 29.39489472 -0.25413507 25.66817745 -0.20898438 21.94140625 C-0.1228598 14.62771025 -0.05555576 7.31399883 0 0 Z " fill="#62B79E" transform="translate(413,231)"/>
<path d="M0 0 C2.422022 3.63303299 2.25312757 5.32953721 2.25878906 9.65527344 C2.2622937 10.32721741 2.26579834 10.99916138 2.26940918 11.69146729 C2.278215 13.91420817 2.2723789 16.13663083 2.265625 18.359375 C2.26697262 19.90773581 2.26891396 21.4560962 2.27142334 23.00445557 C2.27437357 26.25268576 2.27008261 29.50080602 2.26074219 32.74902344 C2.24938571 36.89941105 2.25588345 41.0495389 2.26788712 45.19991684 C2.27514103 48.3999423 2.27280097 51.59990702 2.26763153 54.79993439 C2.26630281 56.32924684 2.26791536 57.85856491 2.27259064 59.38787079 C2.27770985 61.53444334 2.26986914 63.68060613 2.25878906 65.82714844 C2.25719788 67.04609802 2.25560669 68.26504761 2.25396729 69.52093506 C1.97634018 73.3241128 1.16595802 76.38335286 0 80 C-0.33 80 -0.66 80 -1 80 C-1.02705729 78.22925083 -1.04642195 76.45838289 -1.0625 74.6875 C-1.07410156 73.70136719 -1.08570313 72.71523438 -1.09765625 71.69921875 C-1 69 -1 69 0 66 C0.08942453 63.86848273 0.11758899 61.73421849 0.11352539 59.60083008 C0.11367142 58.95665634 0.11381744 58.3124826 0.1139679 57.64878845 C0.11327195 55.52233498 0.10549448 53.3959694 0.09765625 51.26953125 C0.09579094 49.79408313 0.09436757 48.31863439 0.09336853 46.84318542 C0.08955226 42.96174405 0.07972956 39.08034015 0.06866455 35.19891357 C0.05843131 31.23743192 0.05386681 27.27594419 0.04882812 23.31445312 C0.0381065 15.54295167 0.02104075 7.77148109 0 0 Z " fill="#38A281" transform="translate(442,223)"/>
<path d="M0 0 C3.48237464 1.16079155 4.01581316 2.06868381 6.0625 5 C8.07953853 8.01628184 8.07953853 8.01628184 11 10 C11 10.66 11 11.32 11 12 C13.89568747 12.64649305 16.79154279 13.29221732 19.6875 13.9375 C20.50412109 14.11990234 21.32074219 14.30230469 22.16210938 14.49023438 C26.10082483 15.36727628 30.03791195 16.23340455 34 17 C34 17.33 34 17.66 34 18 C24.8731341 18.78982493 16.70030405 16.4179505 8 14 C8 13.34 8 12.68 8 12 C7.01 11.67 6.02 11.34 5 11 C4.34 10.34 3.68 9.68 3 9 C2.34 9 1.68 9 1 9 C1.020625 8.2575 1.04125 7.515 1.0625 6.75 C1.00671312 4.29537721 0.6930096 2.33890739 0 0 Z " fill="#40A989" transform="translate(323,165)"/>
<path d="M0 0 C26.73 0 53.46 0 81 0 C81 0.33 81 0.66 81 1 C79.5884539 1.0154612 79.5884539 1.0154612 78.14839172 1.03123474 C69.27605121 1.12903039 60.40377987 1.23177024 51.53155231 1.33933926 C46.97035911 1.39448165 42.4091594 1.44788762 37.84790039 1.49731445 C33.44528421 1.54508627 29.04274394 1.59743343 24.64021873 1.65294075 C22.96134522 1.67330632 21.28245093 1.6920288 19.60354042 1.70907402 C17.2503472 1.73324678 14.89729589 1.76328318 12.54418945 1.79467773 C11.50516983 1.80331093 11.50516983 1.80331093 10.44515991 1.81211853 C6.84722438 1.8666085 3.50158779 2.15904894 0 3 C0 2.01 0 1.02 0 0 Z " fill="#248E6C" transform="translate(124,149)"/>
<path d="M0 0 C0.33 0 0.66 0 1 0 C1.05472088 1.39538254 1.09311538 2.79140897 1.125 4.1875 C1.14820312 4.96480469 1.17140625 5.74210938 1.1953125 6.54296875 C1 9 1 9 0.00772095 11.29679871 C-1.102085 14.273842 -1.27592579 16.53918765 -1.31884766 19.70825195 C-1.33871735 20.82903641 -1.35858704 21.94982086 -1.37905884 23.10456848 C-1.39061005 24.3036937 -1.40216125 25.50281891 -1.4140625 26.73828125 C-1.43342865 27.97418503 -1.4527948 29.21008881 -1.4727478 30.48344421 C-1.52232555 33.75651967 -1.56362829 37.029561 -1.60089111 40.30279541 C-1.64102019 43.64793457 -1.69223452 46.99288373 -1.7421875 50.33789062 C-1.83816807 56.89181861 -1.92323671 63.44582028 -2 70 C-2.33 70 -2.66 70 -3 70 C-3.0698019 62.20207759 -3.12296344 54.40422967 -3.15543652 46.60607243 C-3.17102948 42.98425752 -3.19214953 39.36265786 -3.22631836 35.7409668 C-3.25914149 32.2396225 -3.2769008 28.738484 -3.28463173 25.2369976 C-3.29279505 23.26462383 -3.31617711 21.29233174 -3.33988953 19.32008362 C-3.34121158 12.19859588 -2.71031224 6.60540918 0 0 Z " fill="#278469" transform="translate(66,194)"/>
<path d="M0 0 C0.33 0 0.66 0 1 0 C0.50769231 6.4 0.50769231 6.4 -2.0625 9.4375 C-2.701875 9.953125 -3.34125 10.46875 -4 11 C-4.66 10.67 -5.32 10.34 -6 10 C-8.10374996 9.84558791 -10.21195119 9.75007361 -12.3203125 9.68359375 C-13.57714844 9.64169922 -14.83398438 9.59980469 -16.12890625 9.55664062 C-17.44761719 9.51732422 -18.76632812 9.47800781 -20.125 9.4375 C-21.46485751 9.39430488 -22.80470156 9.35069027 -24.14453125 9.30664062 C-27.42957815 9.20029019 -30.71470281 9.09826192 -34 9 C-34 8.34 -34 7.68 -34 7 C-23.44 7 -12.88 7 -2 7 C-1.34 4.69 -0.68 2.38 0 0 Z " fill="#289976" transform="translate(295,289)"/>
<path d="M0 0 C0.99 0 1.98 0 3 0 C3 0.66 3 1.32 3 2 C3.66 2 4.32 2 5 2 C5 3.32 5 4.64 5 6 C5.66 6 6.32 6 7 6 C7.02701408 8.10409639 7.04640223 10.20829178 7.0625 12.3125 C7.07410156 13.48425781 7.08570313 14.65601563 7.09765625 15.86328125 C7 19 7 19 6 22 C5.34 22 4.68 22 4 22 C4 22.66 4 23.32 4 24 C3.01 24.33 2.02 24.66 1 25 C1.22816406 24.45472656 1.45632812 23.90945313 1.69140625 23.34765625 C4.48562331 16.01753526 4.48748178 10.1903275 1.4375 2.9375 C0.7259375 1.4834375 0.7259375 1.4834375 0 0 Z " fill="#3BA685" transform="translate(179,298)"/>
<path d="M0 0 C-0.33 0.66 -0.66 1.32 -1 2 C-12.11867283 5.41390236 -22.84674059 6.36702171 -34 3 C-34 2.67 -34 2.34 -34 2 C-33.44127197 2.01047363 -32.88254395 2.02094727 -32.30688477 2.03173828 C-29.7254707 2.07383379 -27.14412924 2.09949343 -24.5625 2.125 C-23.68400391 2.14175781 -22.80550781 2.15851563 -21.90039062 2.17578125 C-16.66450786 2.21442245 -11.96994416 1.76357653 -6.89648438 0.4453125 C-4.56685334 -0.10170694 -2.38271302 -0.15372342 0 0 Z " fill="#57AE93" transform="translate(184,357)"/>
<path d="M0 0 C1.19882813 0.00483398 1.19882813 0.00483398 2.421875 0.00976562 C3.246875 0.01814453 4.071875 0.02652344 4.921875 0.03515625 C5.76234375 0.03966797 6.6028125 0.04417969 7.46875 0.04882812 C9.53648901 0.06057664 11.60419124 0.07851103 13.671875 0.09765625 C13.671875 0.42765625 13.671875 0.75765625 13.671875 1.09765625 C12.26035156 1.17113281 12.26035156 1.17113281 10.8203125 1.24609375 C8.95246094 1.35824219 8.95246094 1.35824219 7.046875 1.47265625 C5.81710938 1.54226563 4.58734375 1.611875 3.3203125 1.68359375 C-1.36051762 2.21482286 -5.0262189 3.28018033 -9.015625 5.78515625 C-10.1603125 6.43484375 -10.1603125 6.43484375 -11.328125 7.09765625 C-12.318125 6.76765625 -13.308125 6.43765625 -14.328125 6.09765625 C-16.33687942 6.37336764 -18.33991187 6.70001362 -20.328125 7.09765625 C-14.90811829 2.35515038 -7.14019237 -0.05100137 0 0 Z " fill="#42A887" transform="translate(159.328125,260.90234375)"/>
<path d="M0 0 C11.88 0 23.76 0 36 0 C31.4990805 3.37568962 31.4990805 3.37568962 27.1484375 3.109375 C26.21386719 3.05910156 25.27929688 3.00882812 24.31640625 2.95703125 C23.34574219 2.88871094 22.37507813 2.82039063 21.375 2.75 C20.42753906 2.69714844 19.48007813 2.64429688 18.50390625 2.58984375 C12.31845885 2.2259939 6.16002514 1.66294726 0 1 C0 0.67 0 0.34 0 0 Z " fill="#34A07F" transform="translate(224,296)"/>
<path d="M0 0 C0.66 0.66 1.32 1.32 2 2 C-0.97 1.67 -3.94 1.34 -7 1 C-7 0.34 -7 -0.32 -7 -1 C-15.58 -1 -24.16 -1 -33 -1 C-33 -1.33 -33 -1.66 -33 -2 C-22.94908152 -4.48765248 -9.40386105 -4.57598596 0 0 Z " fill="#3EA081" transform="translate(361,264)"/>
<path d="M0 0 C-3.3032067 7.64174685 -11.40016665 10.9024746 -18.58203125 14.21484375 C-21 15 -21 15 -24 14 C-21.9100302 11.9100302 -20.29998384 11.07474358 -17.625 9.875 C-16.85414063 9.52179688 -16.08328125 9.16859375 -15.2890625 8.8046875 C-13 8 -13 8 -9 8 C-9 7.34 -9 6.68 -9 6 C-8.34 6 -7.68 6 -7 6 C-6.9175 5.38125 -6.835 4.7625 -6.75 4.125 C-6 2 -6 2 -4.0625 0.75 C-2 0 -2 0 0 0 Z " fill="#4BAA8C" transform="translate(377,345)"/>
<path d="M0 0 C0.66 0.99 1.32 1.98 2 3 C1.34 3 0.68 3 0 3 C0 4.98 0 6.96 0 9 C-2.55723229 10.27861615 -4.36737102 10.11336609 -7.2265625 10.09765625 C-8.2578125 10.09443359 -9.2890625 10.09121094 -10.3515625 10.08789062 C-11.97191406 10.07532227 -11.97191406 10.07532227 -13.625 10.0625 C-15.25695312 10.05573242 -15.25695312 10.05573242 -16.921875 10.04882812 C-19.61463789 10.03701776 -22.30729188 10.02054778 -25 10 C-25 9.01 -25 8.02 -25 7 C-25.99 6.67 -26.98 6.34 -28 6 C-27.67 4.35 -27.34 2.7 -27 1 C-25 4 -25 4 -23 7 C-20.40742331 7.86419223 -18.65962293 8.17580932 -15.98828125 8.31640625 C-15.23095703 8.35830078 -14.47363281 8.40019531 -13.69335938 8.44335938 C-12.51483398 8.50233398 -12.51483398 8.50233398 -11.3125 8.5625 C-10.11657227 8.62727539 -10.11657227 8.62727539 -8.89648438 8.69335938 C-6.93118553 8.79927368 -4.96561504 8.90012551 -3 9 C-2.01 6.03 -1.02 3.06 0 0 Z " fill="#3C9D7E" transform="translate(119,287)"/>
<path d="M0 0 C10.89 0 21.78 0 33 0 C33 0.33 33 0.66 33 1 C32.25234375 1.06058594 31.5046875 1.12117188 30.734375 1.18359375 C29.74953125 1.26738281 28.7646875 1.35117188 27.75 1.4375 C26.28820312 1.55931641 26.28820312 1.55931641 24.796875 1.68359375 C22.12928477 1.90158622 22.12928477 1.90158622 20.1484375 2.5546875 C16.72734965 3.26378571 13.33538126 2.91344618 9.875 2.6875 C9.14667969 2.65205078 8.41835937 2.61660156 7.66796875 2.58007812 C2.24422722 2.24422722 2.24422722 2.24422722 0 0 Z " fill="#45AE8D" transform="translate(199,120)"/>
<path d="M0 0 C9.39546231 0.3722246 17.93655327 1.31640963 27 4 C27 4.66 27 5.32 27 6 C20.92688722 5.58559936 14.97502517 4.71610464 9 3.5625 C7.72125 3.31628906 6.4425 3.07007813 5.125 2.81640625 C2 2 2 2 0 0 Z " fill="#58B196" transform="translate(324,206)"/>
<path d="M0 0 C0 0.66 0 1.32 0 2 C-0.7425 2.268125 -1.485 2.53625 -2.25 2.8125 C-4.99492605 3.86033789 -4.99492605 3.86033789 -7 5.5625 C-9 7 -9 7 -11.5 7.4375 C-14.66967744 8.15067742 -15.9015219 9.59063626 -18 12 C-18.99 11.34 -19.98 10.68 -21 10 C-6.6 0 -6.6 0 0 0 Z " fill="#39A582" transform="translate(328,263)"/>
<path d="M0 0 C-1.8635239 2.43691587 -2.79714874 2.96646632 -5.8828125 3.4765625 C-6.95273438 3.52554688 -8.02265625 3.57453125 -9.125 3.625 C-12.87838199 3.48630019 -12.87838199 3.48630019 -16 5 C-18.33297433 5.04092937 -20.66705225 5.04241723 -23 5 C-17.20775379 -0.79224621 -7.63772091 -0.39205031 0 0 Z " fill="#45AD8D" transform="translate(134,120)"/>
<path d="M0 0 C-0.33 1.65 -0.66 3.3 -1 5 C-1.928125 4.360625 -2.85625 3.72125 -3.8125 3.0625 C-8.1090878 0.28235495 -10.91884037 -0.13740707 -15.9375 -0.125 C-16.97777344 -0.12757813 -18.01804688 -0.13015625 -19.08984375 -0.1328125 C-21.57665971 -0.01932023 -23.63092407 0.28071429 -26 1 C-25.67 0.01 -25.34 -0.98 -25 -2 C-22.79245484 -2.19656224 -20.58390461 -2.38185459 -18.375 -2.5625 C-17.14523438 -2.66691406 -15.91546875 -2.77132813 -14.6484375 -2.87890625 C-9.25537206 -3.05790521 -4.92009412 -2.17062976 0 0 Z " fill="#49B38F" transform="translate(180,293)"/>
<path d="M0 0 C6.02770138 0.47587116 10.76678289 3.19722957 16 6 C16 6.66 16 7.32 16 8 C17.32 8 18.64 8 20 8 C20 8.66 20 9.32 20 10 C14.48258999 9.55017294 10.71250322 8.05373346 6.0625 5 C5.47404297 4.63132812 4.88558594 4.26265625 4.27929688 3.8828125 C2.82833964 2.95932288 1.41050292 1.98417046 0 1 C0 0.67 0 0.34 0 0 Z " fill="#5DB699" transform="translate(309,350)"/>
<path d="M0 0 C0.886875 0.495 1.77375 0.99 2.6875 1.5 C8.75623167 4.1418298 16.77983848 4.07338717 23 2 C23 2.66 23 3.32 23 4 C19.29583874 6.37590142 16.07015427 6.20500286 11.75 6.125 C10.48671875 6.10695313 9.2234375 6.08890625 7.921875 6.0703125 C6.95765625 6.04710937 5.9934375 6.02390625 5 6 C5 5.34 5 4.68 5 4 C3.35 3.67 1.7 3.34 0 3 C0 2.01 0 1.02 0 0 Z " fill="#52B093" transform="translate(151,326)"/>
<path d="M0 0 C6.4596331 1.32505294 10.38917374 5.59409935 15 10 C14.67 10.66 14.34 11.32 14 12 C11.69 11.01 9.38 10.02 7 9 C7 8.34 7 7.68 7 7 C6.34 7 5.68 7 5 7 C5 6.01 5 5.02 5 4 C2.525 3.01 2.525 3.01 0 2 C0 1.34 0 0.68 0 0 Z " fill="#3FA985" transform="translate(421,197)"/>
<path d="M0 0 C1.32 0 2.64 0 4 0 C2.40109514 5.19644079 0.25861997 10.06612142 -2 15 C-3.03139845 11.24570964 -3.21296253 7.904313 -3 4 C-1 1 -1 1 0 0 Z " fill="#2FA17D" transform="translate(101,185)"/>
<path d="M0 0 C0 0.66 0 1.32 0 2 C-1.73548169 3.44526736 -3.53975963 4.8087222 -5.375 6.125 C-6.37273437 6.84945312 -7.37046875 7.57390625 -8.3984375 8.3203125 C-11 10 -11 10 -13 10 C-13 10.99 -13 11.98 -13 13 C-13.99 13 -14.98 13 -16 13 C-14.57646476 9.66863403 -12.8664687 7.72335243 -10.125 5.375 C-9.44695312 4.78460938 -8.76890625 4.19421875 -8.0703125 3.5859375 C-5.49216326 1.61097789 -3.3091516 0 0 0 Z " fill="#51AF93" transform="translate(111,125)"/>
<path d="M0 0 C0.33 0.99 0.66 1.98 1 3 C0 4 0 4 -1.84765625 4.09765625 C-3.8984375 4.06510417 -5.94921875 4.03255208 -8 4 C-8.33 4.99 -8.66 5.98 -9 7 C-10.65 6.67 -12.3 6.34 -14 6 C-14 5.34 -14 4.68 -14 4 C-14.66 4 -15.32 4 -16 4 C-16.33 4.66 -16.66 5.32 -17 6 C-17.99 5.34 -18.98 4.68 -20 4 C-19.67 3.34 -19.34 2.68 -19 2 C-17.87980469 2.02320313 -16.75960938 2.04640625 -15.60546875 2.0703125 C-14.13281916 2.08907237 -12.66016237 2.10727234 -11.1875 2.125 C-10.08051758 2.15013672 -10.08051758 2.15013672 -8.95117188 2.17578125 C-5.08753574 2.21074628 -3.29096332 2.19397555 0 0 Z " fill="#289F79" transform="translate(412,293)"/>
<path d="M0 0 C0.99 0.495 0.99 0.495 2 1 C2 1.66 2 2.32 2 3 C2.53625 3.20625 3.0725 3.4125 3.625 3.625 C7.0017654 5.57996944 9.30474839 8.18223695 12 11 C11.67 11.66 11.34 12.32 11 13 C7.59141041 12.44511332 5.56139003 11.7673781 3.48828125 8.93359375 C0 2.70666189 0 2.70666189 0 0 Z " fill="#56B499" transform="translate(295,136)"/>
<path d="M0 0 C1.2236625 3.67098749 0.29460862 4.57555785 -1.25244141 7.92236328 C-2.65042199 11.80767182 -2.57859024 15.84560482 -2.6875 19.9375 C-2.72166016 20.81212891 -2.75582031 21.68675781 -2.79101562 22.58789062 C-2.87275657 24.72483254 -2.9380713 26.86239218 -3 29 C-3.33 29 -3.66 29 -4 29 C-4.0580966 25.0833957 -4.09362893 21.16690237 -4.125 17.25 C-4.14175781 16.13882813 -4.15851563 15.02765625 -4.17578125 13.8828125 C-4.18222656 12.81289062 -4.18867187 11.74296875 -4.1953125 10.640625 C-4.20578613 9.65610352 -4.21625977 8.67158203 -4.22705078 7.65722656 C-3.99200062 4.9063814 -3.4979873 3.30186552 -2 1 C-1.34 0.67 -0.68 0.34 0 0 Z " fill="#2B9978" transform="translate(95,203)"/>
<path d="M0 0 C0.66 0.33 1.32 0.66 2 1 C2.66666667 3 3.33333333 5 4 7 C4.97581759 8.35113205 5.97029741 9.68946944 7 11 C7 11.66 7 12.32 7 13 C6.34 13 5.68 13 5 13 C5 12.34 5 11.68 5 11 C4.34 11 3.68 11 3 11 C1.2734375 9.25 1.2734375 9.25 -0.625 7 C-1.25664062 6.2575 -1.88828125 5.515 -2.5390625 4.75 C-3.02117187 4.1725 -3.50328125 3.595 -4 3 C-2.68 2.67 -1.36 2.34 0 2 C0 1.34 0 0.68 0 0 Z " fill="#3BA583" transform="translate(284,162)"/>
<path d="M0 0 C0.33 0 0.66 0 1 0 C1 1.65 1 3.3 1 5 C0.01 5.33 -0.98 5.66 -2 6 C-2.69937532 7.31647119 -3.36729133 8.65022151 -4 10 C-6.40545638 11.20272819 -7.94996953 11.10071472 -10.625 11.0625 C-11.85089844 11.04896484 -11.85089844 11.04896484 -13.1015625 11.03515625 C-14.04128906 11.01775391 -14.04128906 11.01775391 -15 11 C-15 10.67 -15 10.34 -15 10 C-14.39671875 9.80664062 -13.7934375 9.61328125 -13.171875 9.4140625 C-12.37265625 9.15367187 -11.5734375 8.89328125 -10.75 8.625 C-9.96109375 8.36976563 -9.1721875 8.11453125 -8.359375 7.8515625 C-3.57608748 6.27284417 -3.57608748 6.27284417 -0.75 2.375 C-0.37875 1.199375 -0.37875 1.199375 0 0 Z " fill="#45AB8A" transform="translate(358,320)"/>
<path d="M0 0 C0.66 0 1.32 0 2 0 C0.21470545 6.76532673 -2.49937851 11.65460165 -7 17 C-7.625 15.1875 -7.625 15.1875 -8 13 C-7.34 12.01 -6.68 11.02 -6 10 C-5.34 10 -4.68 10 -4 10 C-4 9.34 -4 8.68 -4 8 C-3.34 8 -2.68 8 -2 8 C-2.061875 6.8553125 -2.061875 6.8553125 -2.125 5.6875 C-2 3 -2 3 0 0 Z " fill="#49B192" transform="translate(387,327)"/>
<path d="M0 0 C0.33 0 0.66 0 1 0 C0.50769231 6.4 0.50769231 6.4 -2.0625 9.4375 C-2.701875 9.953125 -3.34125 10.46875 -4 11 C-4.55171875 10.68289063 -5.1034375 10.36578125 -5.671875 10.0390625 C-8.28477989 8.87290025 -10.40579002 8.59954289 -13.25 8.375 C-14.14203125 8.30023438 -15.0340625 8.22546875 -15.953125 8.1484375 C-16.96632813 8.07496094 -16.96632813 8.07496094 -18 8 C-18 7.67 -18 7.34 -18 7 C-12.72 7 -7.44 7 -2 7 C-1.34 4.69 -0.68 2.38 0 0 Z " fill="#3DA685" transform="translate(295,289)"/>
<path d="M0 0 C4.88049925 3.9419417 9.0580583 8.11950075 13 13 C9.33535945 12.5047783 7.29167646 11.9791794 5 9 C4.67 8.01 4.34 7.02 4 6 C3.01 5.67 2.02 5.34 1 5 C0.67 3.35 0.34 1.7 0 0 Z " fill="#4DAE8F" transform="translate(310,152)"/>
<path d="M0 0 C-3.17459631 1.01498547 -5.30877671 0.94466465 -8.546875 0.22265625 C-9.81337891 -0.05288086 -9.81337891 -0.05288086 -11.10546875 -0.33398438 C-11.97816406 -0.53314453 -12.85085938 -0.73230469 -13.75 -0.9375 C-14.63816406 -1.13279297 -15.52632813 -1.32808594 -16.44140625 -1.52929688 C-18.62949322 -2.01161712 -20.8154173 -2.50209032 -23 -3 C-23 -3.33 -23 -3.66 -23 -4 C-14.66737751 -6.21069576 -7.76686236 -2.92268649 0 0 Z " fill="#4AAC90" transform="translate(389,219)"/>
<path d="M0 0 C0.33 0.66 0.66 1.32 1 2 C0.0625 4.125 0.0625 4.125 -1 6 C-1.99 6 -2.98 6 -4 6 C-4.66 7.98 -5.32 9.96 -6 12 C-5.34 12.33 -4.68 12.66 -4 13 C-5.98 13.66 -7.96 14.32 -10 15 C-8.66749209 11.4124787 -7.169283 8.1635377 -5 5 C-4.34 5 -3.68 5 -3 5 C-2.690625 4.360625 -2.38125 3.72125 -2.0625 3.0625 C-1 1 -1 1 0 0 Z " fill="#59B596" transform="translate(306,274)"/>
<path d="M0 0 C2.08519216 0.2561291 4.1681505 0.53048735 6.25 0.8125 C7.41015625 0.96332031 8.5703125 1.11414063 9.765625 1.26953125 C12.98394666 1.99637443 14.58331655 2.81661025 17 5 C12.86911768 6.18025209 10.8574681 5.78760717 7 4 C5.9275 3.67 4.855 3.34 3.75 3 C1 2 1 2 0 0 Z " fill="#5EBCA3" transform="translate(404,192)"/>
<path d="M0 0 C1.65 0 3.3 0 5 0 C5.2475 0.78375 5.495 1.5675 5.75 2.375 C7.15389099 5.32317108 8.00675737 5.9024777 11 7 C10.34 8.32 9.68 9.64 9 11 C7.86874978 9.92319498 6.74525081 8.83824365 5.625 7.75 C4.99851562 7.14671875 4.37203125 6.5434375 3.7265625 5.921875 C2.02689839 4.0299412 1.01540134 2.31798691 0 0 Z " fill="#44B093" transform="translate(292,176)"/>
<path d="M0 0 C1.32 0.33 2.64 0.66 4 1 C3.67 2.65 3.34 4.3 3 6 C-0.71888239 5.49287967 -3.73454239 4.88391785 -7 3 C-5.1875 1.9375 -5.1875 1.9375 -3 1 C-2.01 1.33 -1.02 1.66 0 2 C0 1.34 0 0.68 0 0 Z " fill="#34A883" transform="translate(147,353)"/>
<path d="M0 0 C0.33 0 0.66 0 1 0 C1.05454409 2.35448675 1.0939279 4.70767875 1.125 7.0625 C1.14820313 8.37347656 1.17140625 9.68445313 1.1953125 11.03515625 C0.99417522 15.11824299 0.27165462 18.14999053 -1 22 C-1.33 22 -1.66 22 -2 22 C-2.02696365 20.20841511 -2.04637917 18.41671527 -2.0625 16.625 C-2.07410156 15.62726563 -2.08570313 14.62953125 -2.09765625 13.6015625 C-2 11 -2 11 -1 9 C-0.77532169 7.46331135 -0.59203195 5.92031946 -0.4375 4.375 C-0.35371094 3.55773437 -0.26992188 2.74046875 -0.18359375 1.8984375 C-0.12300781 1.27195312 -0.06242187 0.64546875 0 0 Z " fill="#52AF95" transform="translate(443,281)"/>
<path d="M0 0 C4.48304547 3.65285187 6.85385947 8.73140091 9 14 C9 14.99 9 15.98 9 17 C8.34 17 7.68 17 7 17 C7 16.01 7 15.02 7 14 C6.34 14 5.68 14 5 14 C4.67 11.69 4.34 9.38 4 7 C3.01 6.67 2.02 6.34 1 6 C0.67 4.02 0.34 2.04 0 0 Z " fill="#4EAD8F" transform="translate(380,279)"/>
<path d="M0 0 C8.58 0 17.16 0 26 0 C26 0.33 26 0.66 26 1 C25.39003174 1.02505615 24.78006348 1.0501123 24.15161133 1.07592773 C21.37172102 1.1924058 18.5921266 1.31489632 15.8125 1.4375 C14.85279297 1.47681641 13.89308594 1.51613281 12.90429688 1.55664062 C11.97294922 1.59853516 11.04160156 1.64042969 10.08203125 1.68359375 C8.80162964 1.73858032 8.80162964 1.73858032 7.49536133 1.79467773 C4.93545406 2.00531094 2.50666757 2.44841536 0 3 C0 2.01 0 1.02 0 0 Z " fill="#359A7A" transform="translate(124,149)"/>
<path d="M0 0 C0 3.51663514 -0.67787284 4.31847023 -2.75 7.0625 C-3.26046875 7.75472656 -3.7709375 8.44695312 -4.296875 9.16015625 C-6.07828178 11.08456587 -7.59957707 11.99286603 -10 13 C-10.33 12.01 -10.66 11.02 -11 10 C-9.68 10 -8.36 10 -7 10 C-6.67 8.68 -6.34 7.36 -6 6 C-5.34 6 -4.68 6 -4 6 C-4 5.34 -4 4.68 -4 4 C-3.34 4 -2.68 4 -2 4 C-2 3.01 -2 2.02 -2 1 C-1.34 0.67 -0.68 0.34 0 0 Z " fill="#61B39A" transform="translate(439,306)"/>
<path d="M0 0 C0.98852746 2.66902415 1.12752384 3.69713089 0 6.375 C-1.23992759 9.62980993 -0.77738986 11.65722362 0 15 C-0.99 15.33 -1.98 15.66 -3 16 C-3 15.01 -3 14.02 -3 13 C-3.66 13 -4.32 13 -5 13 C-4.54554036 11.58208592 -4.08625056 10.16571954 -3.625 8.75 C-3.24214844 7.56664062 -3.24214844 7.56664062 -2.8515625 6.359375 C-2.04826333 4.13372042 -1.10288338 2.09068328 0 0 Z " fill="#44AA89" transform="translate(72,181)"/>
<path d="M0 0 C0.33 0 0.66 0 1 0 C1.33 2.31 1.66 4.62 2 7 C2.66 7 3.32 7 4 7 C4.66 9.64 5.32 12.28 6 15 C5.01 15 4.02 15 3 15 C2.29911844 13.25531628 1.61475991 11.50398839 0.9375 9.75 C0.55464844 8.77546875 0.17179687 7.8009375 -0.22265625 6.796875 C-1.01113787 3.95992605 -1.02437812 2.70590448 0 0 Z " fill="#3DA584" transform="translate(64,294)"/>
<path d="M0 0 C3.02419525 0.58803797 6.01758453 1.22678118 9 2 C9.33 3.32 9.66 4.64 10 6 C11.32 6 12.64 6 14 6 C14 7.32 14 8.64 14 10 C13.34 10 12.68 10 12 10 C12 9.34 12 8.68 12 8 C11.443125 7.7525 10.88625 7.505 10.3125 7.25 C7.59628991 5.78177833 5.38391359 3.95603166 3 2 C2.01 1.34 1.02 0.68 0 0 Z " fill="#65BC9C" transform="translate(263,150)"/>
<path d="M0 0 C1.14926266 0.95421808 2.29430541 1.91352045 3.4375 2.875 C4.07558594 3.40867187 4.71367187 3.94234375 5.37109375 4.4921875 C7 6 7 6 8 8 C3.48780488 8.36585366 3.48780488 8.36585366 1.25 6.6875 C0 5 0 5 -1 2 C-0.67 1.34 -0.34 0.68 0 0 Z " fill="#3BAA86" transform="translate(196,272)"/>
<path d="M0 0 C5.66442374 0.36504064 10.00703705 1.0554321 15 4 C15 4.33 15 4.66 15 5 C9.33895411 4.50341703 5.12325529 3.45489316 0 1 C0 0.67 0 0.34 0 0 Z " fill="#56B194" transform="translate(173,262)"/>
<path d="M0 0 C1.06528748 2.73019786 1.07998186 3.79298812 0.00390625 6.578125 C-0.47175781 7.45984375 -0.94742188 8.3415625 -1.4375 9.25 C-1.91058594 10.14203125 -2.38367188 11.0340625 -2.87109375 11.953125 C-3.24363281 12.62859375 -3.61617188 13.3040625 -4 14 C-4.33 14 -4.66 14 -5 14 C-5.32839609 9.2929894 -4.70790893 6.8535627 -2 3 C-1.34 2.01 -0.68 1.02 0 0 Z " fill="#63B29A" transform="translate(112,167)"/>
<path d="M0 0 C0.33 0 0.66 0 1 0 C1.3690205 9.41002278 1.3690205 9.41002278 -1 14 C-1.66 13.34 -2.32 12.68 -3 12 C-2.79296875 9.6875 -2.79296875 9.6875 -2.1875 7 C-1.99542969 6.113125 -1.80335937 5.22625 -1.60546875 4.3125 C-1 2 -1 2 0 0 Z " fill="#45A889" transform="translate(66,194)"/>
<path d="M0 0 C0.66 0 1.32 0 2 0 C2 0.66 2 1.32 2 2 C2.99 2.33 3.98 2.66 5 3 C6.1875 6.0625 6.1875 6.0625 7 9 C6.34 9.66 5.68 10.32 5 11 C4.16151196 9.54462432 3.32936066 8.08559627 2.5 6.625 C1.80390625 5.40683594 1.80390625 5.40683594 1.09375 4.1640625 C0 2 0 2 0 0 Z " fill="#44AC8D" transform="translate(294,329)"/>
<path d="M0 0 C-5.62470514 3.06802099 -10.69403048 4.89061647 -17 6 C-16.34 5.67 -15.68 5.34 -15 5 C-15 4.34 -15 3.68 -15 3 C-10.545 2.505 -10.545 2.505 -6 2 C-6 1.34 -6 0.68 -6 0 C-3.50907189 -1.24546405 -2.58919267 -0.7767578 0 0 Z " fill="#53AE91" transform="translate(429,320)"/>
<path d="M0 0 C0.86625 1.11375 0.86625 1.11375 1.75 2.25 C3.90659314 4.99198619 3.90659314 4.99198619 6.25 7.1875 C8 9 8 9 8 11 C6.35 10.67 4.7 10.34 3 10 C3 8.68 3 7.36 3 6 C2.01 5.67 1.02 5.34 0 5 C0 3.35 0 1.7 0 0 Z " fill="#4DAA8A" transform="translate(322,317)"/>
<path d="M0 0 C1.98 0.66 3.96 1.32 6 2 C6 2.66 6 3.32 6 4 C6.66 3.34 7.32 2.68 8 2 C8.66 2.66 9.32 3.32 10 4 C9.01 5.32 8.02 6.64 7 8 C5.83035398 6.8572081 4.66435444 5.71068285 3.5 4.5625 C2.8503125 3.92441406 2.200625 3.28632813 1.53125 2.62890625 C0 1 0 1 0 0 Z " fill="#48B28E" transform="translate(302,187)"/>
<path d="M0 0 C4.2742558 1.5830577 6.26531794 4.50568404 9 8 C7.35 7.67 5.7 7.34 4 7 C4 6.34 4 5.68 4 5 C2.68 4.67 1.36 4.34 0 4 C0 2.68 0 1.36 0 0 Z " fill="#62B69B" transform="translate(286,128)"/>
<path d="M0 0 C4.29 0.33 8.58 0.66 13 1 C13 1.33 13 1.66 13 2 C8.05 2.66 3.1 3.32 -2 4 C-2 3.34 -2 2.68 -2 2 C-1.34 2 -0.68 2 0 2 C0 1.34 0 0.68 0 0 Z " fill="#63C0A2" transform="translate(332,290)"/>
<path d="M0 0 C1.75 1.4375 1.75 1.4375 3 3 C2.67 3.99 2.34 4.98 2 6 C2.66 6.33 3.32 6.66 4 7 C1 7 1 7 -0.38671875 5.6875 C-1.59114583 4.125 -2.79557292 2.5625 -4 1 C-2.1875 0.3125 -2.1875 0.3125 0 0 Z " fill="#37AB87" transform="translate(314,194)"/>
<path d="M0 0 C0 0.66 0 1.32 0 2 C-2.5 3.625 -2.5 3.625 -5 5 C-5 4.01 -5 3.02 -5 2 C-2 0 -2 0 0 0 Z M-9 5 C-7.68 5.33 -6.36 5.66 -5 6 C-6.485 7.485 -6.485 7.485 -8 9 C-8.99 8.67 -9.98 8.34 -11 8 C-10.34 7.01 -9.68 6.02 -9 5 Z " fill="#229F75" transform="translate(103,133)"/>
<path d="M0 0 C1.65 0 3.3 0 5 0 C1.87378374 3.39417765 -0.56541027 5.6062718 -5 7 C-5 6.34 -5 5.68 -5 5 C-4.01 5 -3.02 5 -2 5 C-1.34 3.35 -0.68 1.7 0 0 Z " fill="#48AB8F" transform="translate(193,348)"/>
<path d="M0 0 C2.74277578 3.19990508 4.6302836 6.00499382 6 10 C5.01 10 4.02 10 3 10 C-0.00617269 6.99382731 0.40414684 4.17618402 0 0 Z " fill="#51B093" transform="translate(204,280)"/>
<path d="M0 0 C2.97 0.495 2.97 0.495 6 1 C6.33 2.32 6.66 3.64 7 5 C5.68 5 4.36 5 3 5 C3 4.34 3 3.68 3 3 C2.01 2.67 1.02 2.34 0 2 C0 1.34 0 0.68 0 0 Z " fill="#259E78" transform="translate(328,174)"/>
<path d="M0 0 C1.65 0 3.3 0 5 0 C5.33 1.32 5.66 2.64 6 4 C7.32 4.33 8.64 4.66 10 5 C10 5.66 10 6.32 10 7 C5.56541027 5.6062718 3.12621626 3.39417765 0 0 Z " fill="#56B095" transform="translate(130,348)"/>
<path d="M0 0 C1.65 0 3.3 0 5 0 C4.21625 0.9075 3.4325 1.815 2.625 2.75 C0.69947504 5.05190236 -0.82205741 7.21577207 -2 10 C-3 8 -3 8 -2.44140625 6.0546875 C-2.15136719 5.33539063 -1.86132812 4.61609375 -1.5625 3.875 C-1.27503906 3.15054687 -0.98757813 2.42609375 -0.69140625 1.6796875 C-0.46324219 1.12539063 -0.23507812 0.57109375 0 0 Z " fill="#5BB39A" transform="translate(325,295)"/>
<path d="M0 0 C1.125 3.75 1.125 3.75 0 6 C-1.64363134 6.72159424 -3.31050386 7.39351421 -5 8 C-3.62845496 5.04590299 -2.01136276 2.55991624 0 0 Z M2 1 C2.99 1.495 2.99 1.495 4 2 C3.01 2.495 3.01 2.495 2 3 C2 2.34 2 1.68 2 1 Z " fill="#5CB69A" transform="translate(126,277)"/>
<path d="M0 0 C0 0.66 0 1.32 0 2 C-1.95927063 3.7143618 -3.95880212 5.38405168 -6 7 C-6.99 6.34 -7.98 5.68 -9 5 C-7.87926138 4.16094435 -6.75325453 3.32892169 -5.625 2.5 C-4.99851562 2.0359375 -4.37203125 1.571875 -3.7265625 1.09375 C-2 0 -2 0 0 0 Z " fill="#4EAD8A" transform="translate(316,268)"/>
<path d="M0 0 C6.42857143 4.14285714 6.42857143 4.14285714 9 7 C8.67 7.66 8.34 8.32 8 9 C6.68 8.34 5.36 7.68 4 7 C4 6.01 4 5.02 4 4 C2.68 3.34 1.36 2.68 0 2 C0 1.34 0 0.68 0 0 Z " fill="#8AC9B5" transform="translate(427,200)"/>
<path d="M0 0 C0.33 0 0.66 0 1 0 C1.3125 2.75 1.3125 2.75 1 6 C-1.5 8.375 -1.5 8.375 -4 10 C-3.52449439 8.51965236 -3.04448784 7.04074979 -2.5625 5.5625 C-2.29566406 4.73878906 -2.02882813 3.91507813 -1.75390625 3.06640625 C-1 1 -1 1 0 0 Z " fill="#50AE8E" transform="translate(80,165)"/>
<path d="M0 0 C1.41623216 -0.05447047 2.83308191 -0.09300508 4.25 -0.125 C5.03890625 -0.14820312 5.8278125 -0.17140625 6.640625 -0.1953125 C9.20731941 0.0171622 10.7916067 0.71345895 13 2 C7.96488101 3.0070238 4.76052962 2.97387813 0 1 C0 0.67 0 0.34 0 0 Z " fill="#279E78" transform="translate(168,120)"/>
<path d="M0 0 C2.375 0.3125 2.375 0.3125 5 1 C5.66 1.99 6.32 2.98 7 4 C6.67 4.99 6.34 5.98 6 7 C4.02 4.69 2.04 2.38 0 0 Z " fill="#57B49A" transform="translate(302,343)"/>
<path d="M0 0 C0.33 0.99 0.66 1.98 1 3 C-0.54428472 4.54428472 -2.17745276 4.41843513 -4.3125 4.6875 C-5.48232422 4.84798828 -5.48232422 4.84798828 -6.67578125 5.01171875 C-9.31894909 4.99839185 -10.75381115 4.34154528 -13 3 C-11.96939453 2.92652344 -11.96939453 2.92652344 -10.91796875 2.8515625 C-9.56638672 2.73941406 -9.56638672 2.73941406 -8.1875 2.625 C-7.29417969 2.55539062 -6.40085937 2.48578125 -5.48046875 2.4140625 C-2.75601501 2.13354964 -2.75601501 2.13354964 0 0 Z " fill="#48AA8B" transform="translate(412,293)"/>
<path d="M0 0 C8.57142857 0.71428571 8.57142857 0.71428571 12 4 C9.03 3.67 6.06 3.34 3 3 C3 2.34 3 1.68 3 1 C2.01 0.67 1.02 0.34 0 0 Z " fill="#60B49A" transform="translate(351,262)"/>
<path d="M0 0 C4.62 0 9.24 0 14 0 C14.33 0.99 14.66 1.98 15 3 C9.9697924 2.47462276 4.98114761 1.89405214 0 1 C0 0.67 0 0.34 0 0 Z " fill="#5EB298" transform="translate(351,212)"/>
<path d="M0 0 C2 3 2 3 4 6 C4.99 6.66 5.98 7.32 7 8 C5.35 8.33 3.7 8.66 2 9 C2 8.01 2 7.02 2 6 C1.01 5.67 0.02 5.34 -1 5 C-0.67 3.35 -0.34 1.7 0 0 Z " fill="#75C3A9" transform="translate(92,288)"/>
<path d="M0 0 C1.9375 0.8125 1.9375 0.8125 4 2 C4.33 2.99 4.66 3.98 5 5 C1.7 4.34 -1.6 3.68 -5 3 C-3.68 2.34 -2.36 1.68 -1 1 C-0.67 0.67 -0.34 0.34 0 0 Z " fill="#259977" transform="translate(325,202)"/>
<path d="M0 0 C1.75070517 0.11470137 3.50057536 0.24219028 5.25 0.375 C6.22453125 0.44460937 7.1990625 0.51421875 8.203125 0.5859375 C10.89633189 0.98465249 12.66963279 1.63507063 15 3 C13.02 3.33 11.04 3.66 9 4 C9 3.34 9 2.68 9 2 C6.03 1.67 3.06 1.34 0 1 C0 0.67 0 0.34 0 0 Z " fill="#66B59B" transform="translate(386,189)"/>
<path d="M0 0 C0.33 0 0.66 0 1 0 C1.22036864 3.85645121 0.60355101 6.49223216 -1 10 C-1.99 10 -2.98 10 -4 10 C-2.8905928 6.51329166 -1.73662334 3.22515763 0 0 Z " fill="#59B495" transform="translate(85,154)"/>
<path d="M0 0 C0.66 0.33 1.32 0.66 2 1 C0.625 3 0.625 3 -1 5 C-1.66 5 -2.32 5 -3 5 C-3 5.99 -3 6.98 -3 8 C-3.99 8 -4.98 8 -6 8 C-4.55746343 4.63408134 -2.66735273 2.48952921 0 0 Z " fill="#6EBCA6" transform="translate(101,130)"/>
<path d="M0 0 C1.32 0.33 2.64 0.66 4 1 C4 1.66 4 2.32 4 3 C5.32 3 6.64 3 8 3 C8 3.66 8 4.32 8 5 C5.69 4.67 3.38 4.34 1 4 C0.67 2.68 0.34 1.36 0 0 Z " fill="#4EB092" transform="translate(321,355)"/>
<path d="M0 0 C0.33 0.66 0.66 1.32 1 2 C-1.97 2 -4.94 2 -8 2 C-8.33 1.34 -8.66 0.68 -9 0 C-5.88173308 -1.55913346 -3.32926126 -0.66585225 0 0 Z " fill="#149068" transform="translate(168,289)"/>
<path d="M0 0 C1.32 0 2.64 0 4 0 C2.25 5.75 2.25 5.75 0 8 C0 5.36 0 2.72 0 0 Z " fill="#44B296" transform="translate(101,185)"/>
<path d="M0 0 C3.16717283 1.58358642 4.73268318 2.45263699 6.3125 5.6875 C6.539375 6.450625 6.76625 7.21375 7 8 C3.28631113 6.76210371 2.22645819 5.14775123 0 2 C0 1.34 0 0.68 0 0 Z " fill="#69BCA5" transform="translate(69,310)"/>
<path d="M0 0 C3.96 1.98 3.96 1.98 8 4 C8 4.33 8 4.66 8 5 C4.28400809 5.20086443 3.22791555 5.1519437 0 3 C0 2.01 0 1.02 0 0 Z " fill="#52B18D" transform="translate(188,267)"/>
<path d="M0 0 C0.66 0 1.32 0 2 0 C1.3125 2.4375 1.3125 2.4375 0 5 C-2.625 5.8125 -2.625 5.8125 -5 6 C-3.625 4 -3.625 4 -2 2 C-1.34 2 -0.68 2 0 2 C0 1.34 0 0.68 0 0 Z " fill="#5BB197" transform="translate(132,271)"/>
<path d="M0 0 C2.91517292 1.07401108 4.77810176 1.77810176 7 4 C6.01 4.33 5.02 4.66 4 5 C1.8125 3.6875 1.8125 3.6875 0 2 C0 1.34 0 0.68 0 0 Z " fill="#49A589" transform="translate(363,266)"/>
<path d="M0 0 C6.0546875 -0.1953125 6.0546875 -0.1953125 8 0 C8.66 0.66 9.32 1.32 10 2 C5.94568308 3.15837626 3.78187881 2.83691257 0 1 C0 0.67 0 0.34 0 0 Z " fill="#3CA483" transform="translate(411,195)"/>
<path d="M0 0 C1.65 0 3.3 0 5 0 C5.33 1.65 5.66 3.3 6 5 C4.125 4.75 4.125 4.75 2 4 C0.75 1.9375 0.75 1.9375 0 0 Z " fill="#32A47F" transform="translate(292,176)"/>
<path d="M0 0 C3.3 0 6.6 0 10 0 C10 0.66 10 1.32 10 2 C6.18510326 3.46726798 3.70988378 2.43336419 0 1 C0 0.67 0 0.34 0 0 Z " fill="#3EAE8A" transform="translate(157,120)"/>
<path d="M0 0 C2.875 -0.125 2.875 -0.125 6 0 C6.66 0.66 7.32 1.32 8 2 C5.36 2.33 2.72 2.66 0 3 C0 2.01 0 1.02 0 0 Z " fill="#1B9870" transform="translate(134,120)"/>
</svg>
